<svg width="269.134" height="269.134" xmlns="http://www.w3.org/2000/svg" xmlns:svg="http://www.w3.org/2000/svg">

 <g>
  <title>Layer 1</title>
  <g id="svg_1">
   <g id="svg_2">
    <g id="svg_3">
     <g id="svg_4">
      <path id="svg_5" fill="#000000" d="m263.278015,145.076004c-2.825989,-0.843002 -6.173981,-3.121002 -9.682007,-6.600006c-2.924988,-2.895996 -5.731995,-6.565002 -8.579987,-11.213997c-15.786011,-25.763 -32.613007,-38.118004 -50.078003,-36.653992c-4.033997,0.333 -7.794998,1.43499 -11.332001,3.001999c-1.375,-2.822998 -2.783997,-5.590996 -4.248001,-8.292c-18.912994,-34.895008 -39.280991,-51.667 -60.487999,-49.812c-39.216995,3.405991 -62.528999,69.228992 -65.415997,77.841c-10.342003,26.006996 -27.349001,33.67701 -37.009001,35.948997l0,-137.948006c-0.003,-4.498 -3.681001,-8.145 -8.221001,-8.145s-8.22402,3.647 -8.22402,8.145l0,246.438011c0,4.497986 3.681,8.144989 8.221,8.144989l248.716012,0c4.539978,0 8.220978,-3.645996 8.220978,-8.144989c0,-4.498016 -3.681,-8.145004 -8.220978,-8.145004l-204.132011,0c33.869003,-20.896011 90.359001,-61.14801 110.598,-107.672989c1.912994,-4.752014 6.839996,-14.396011 13.488998,-22.393005c0.593002,1.550995 1.192001,3.069 1.772003,4.670998c5.862991,16.262993 16.740997,46.015999 23.742004,62.564003c4.789993,11.322998 12.587997,20.431992 22.552994,26.349991c6.968994,4.139999 14.024002,6.225006 20.854996,6.225006c4.113998,0 8.145004,-0.755997 12.031006,-2.272003c4.226013,-1.649994 6.299011,-6.378998 4.635986,-10.563995c-1.662994,-4.188004 -6.429993,-6.240997 -10.659988,-4.593994c-5.507996,2.14299 -11.701004,1.217987 -18.412994,-2.771011c-6.837006,-4.05899 -12.464005,-10.687988 -15.840012,-18.669998c-6.852997,-16.195999 -17.615997,-45.638 -23.423996,-61.747009c-1.274994,-3.536995 -2.591995,-6.932999 -3.938004,-10.252998c1.980011,-0.900002 4.014999,-1.496002 6.091003,-1.668999c13.35701,-1.140999 26.214996,15.094002 34.660995,28.873993c3.544006,5.779999 7.145004,10.451004 11.009003,14.277008c5.503998,5.453003 11.07901,9.048004 16.581009,10.682007c4.350983,1.298004 8.932983,-1.149994 10.237,-5.459991c1.304993,-4.307022 -1.162994,-8.851013 -5.506989,-10.142014zm-115.062012,-9.352005c-24.907005,57.249008 -115.676003,107.285004 -128.085003,113.917999l-3.691,0l0,-83.751999c12.806,-2.108002 38.204,-10.862 52.397997,-46.804001c0.054001,-0.138 0.106003,-0.278999 0.153999,-0.417c5.969002,-17.901001 26.821007,-64.816998 51.315002,-66.931c17.545006,-1.521999 33.898003,21.620003 44.560997,41.290001c1.742996,3.217003 3.396011,6.568001 5.011002,9.989998c-13.102005,12.415001 -20.559998,29.959999 -21.662994,32.706001z"/>
     </g>
    </g>
   </g>
  </g>
  <g id="svg_6"/>
  <g id="svg_7"/>
  <g id="svg_8"/>
  <g id="svg_9"/>
  <g id="svg_10"/>
  <g id="svg_11"/>
  <g id="svg_12"/>
  <g id="svg_13"/>
  <g id="svg_14"/>
  <g id="svg_15"/>
  <g id="svg_16"/>
  <g id="svg_17"/>
  <g id="svg_18"/>
  <g id="svg_19"/>
  <g id="svg_20"/>
 </g>
</svg>
